<svg width="433" height="89" viewBox="0 0 433 89" fill="none" xmlns="http://www.w3.org/2000/svg">
<path d="M170.494 74H166.885V63.8182H170.524C171.548 63.8182 172.43 64.022 173.169 64.4297C173.908 64.834 174.477 65.4157 174.874 66.1747C175.275 66.9337 175.476 67.8419 175.476 68.8991C175.476 69.9598 175.275 70.8712 174.874 71.6335C174.477 72.3958 173.905 72.9808 173.159 73.3885C172.417 73.7962 171.528 74 170.494 74ZM169.038 72.1555H170.405C171.041 72.1555 171.576 72.0429 172.011 71.8175C172.448 71.5888 172.776 71.2358 172.995 70.7585C173.217 70.2779 173.328 69.6581 173.328 68.8991C173.328 68.1468 173.217 67.532 172.995 67.0547C172.776 66.5774 172.45 66.2261 172.016 66.0007C171.581 65.7753 171.046 65.6626 170.41 65.6626H169.038V72.1555ZM183.423 63.8182V74H181.27V63.8182H183.423ZM193.004 74H189.394V63.8182H193.034C194.058 63.8182 194.939 64.022 195.678 64.4297C196.418 64.834 196.986 65.4157 197.384 66.1747C197.785 66.9337 197.985 67.8419 197.985 68.8991C197.985 69.9598 197.785 70.8712 197.384 71.6335C196.986 72.3958 196.414 72.9808 195.668 73.3885C194.926 73.7962 194.038 74 193.004 74ZM191.547 72.1555H192.914C193.551 72.1555 194.086 72.0429 194.52 71.8175C194.958 71.5888 195.286 71.2358 195.504 70.7585C195.726 70.2779 195.837 69.6581 195.837 68.8991C195.837 68.1468 195.726 67.532 195.504 67.0547C195.286 66.5774 194.959 66.2261 194.525 66.0007C194.091 65.7753 193.556 65.6626 192.919 65.6626H191.547V72.1555ZM204.961 74H202.654L206.169 63.8182H208.943L212.453 74H210.146L207.596 66.1449H207.516L204.961 74ZM204.816 69.9979H210.265V71.6783H204.816V69.9979ZM223.169 66.7464C223.13 66.3454 222.959 66.0339 222.657 65.8118C222.356 65.5897 221.946 65.4787 221.429 65.4787C221.078 65.4787 220.781 65.5284 220.539 65.6278C220.297 65.724 220.112 65.8582 219.983 66.0305C219.857 66.2029 219.794 66.3984 219.794 66.6172C219.787 66.7995 219.825 66.9586 219.908 67.0945C219.994 67.2304 220.112 67.348 220.261 67.4474C220.41 67.5436 220.582 67.6281 220.778 67.701C220.974 67.7706 221.182 67.8303 221.404 67.88L222.319 68.0987C222.763 68.1982 223.171 68.3307 223.542 68.4964C223.913 68.6622 224.235 68.866 224.507 69.108C224.778 69.3499 224.989 69.6349 225.138 69.9631C225.291 70.2912 225.368 70.6674 225.372 71.0916C225.368 71.7147 225.209 72.255 224.894 72.7124C224.583 73.1664 224.132 73.5194 223.542 73.7713C222.956 74.0199 222.248 74.1442 221.419 74.1442C220.597 74.1442 219.881 74.0182 219.272 73.7663C218.665 73.5144 218.191 73.1416 217.85 72.6477C217.512 72.1506 217.334 71.5357 217.318 70.8033H219.401C219.424 71.1446 219.522 71.4297 219.694 71.6584C219.87 71.8838 220.104 72.0545 220.395 72.1705C220.69 72.2831 221.023 72.3395 221.394 72.3395C221.759 72.3395 222.076 72.2865 222.344 72.1804C222.616 72.0743 222.826 71.9268 222.975 71.7379C223.125 71.549 223.199 71.3319 223.199 71.0866C223.199 70.858 223.131 70.6657 222.995 70.5099C222.863 70.3542 222.667 70.2216 222.409 70.1122C222.153 70.0028 221.84 69.9034 221.469 69.8139L220.36 69.5355C219.502 69.3267 218.824 69.0002 218.327 68.5561C217.83 68.112 217.583 67.5137 217.586 66.7614C217.583 66.1449 217.747 65.6063 218.078 65.1456C218.413 64.6849 218.872 64.3253 219.456 64.0668C220.039 63.8082 220.702 63.679 221.444 63.679C222.2 63.679 222.859 63.8082 223.423 64.0668C223.99 64.3253 224.43 64.6849 224.745 65.1456C225.06 65.6063 225.223 66.1399 225.233 66.7464H223.169ZM240.376 68.9091C240.376 70.0194 240.166 70.964 239.745 71.7429C239.327 72.5218 238.757 73.1167 238.035 73.5277C237.315 73.9354 236.507 74.1392 235.608 74.1392C234.704 74.1392 233.892 73.9337 233.172 73.5227C232.453 73.1117 231.885 72.5168 231.467 71.7379C231.05 70.959 230.841 70.0161 230.841 68.9091C230.841 67.7988 231.05 66.8542 231.467 66.0753C231.885 65.2964 232.453 64.7031 233.172 64.2955C233.892 63.8845 234.704 63.679 235.608 63.679C236.507 63.679 237.315 63.8845 238.035 64.2955C238.757 64.7031 239.327 65.2964 239.745 66.0753C240.166 66.8542 240.376 67.7988 240.376 68.9091ZM238.194 68.9091C238.194 68.1899 238.086 67.5833 237.871 67.0895C237.658 66.5956 237.358 66.2211 236.971 65.9659C236.583 65.7107 236.129 65.5831 235.608 65.5831C235.088 65.5831 234.634 65.7107 234.246 65.9659C233.858 66.2211 233.557 66.5956 233.341 67.0895C233.129 67.5833 233.023 68.1899 233.023 68.9091C233.023 69.6283 233.129 70.2348 233.341 70.7287C233.557 71.2225 233.858 71.5971 234.246 71.8523C234.634 72.1075 235.088 72.2351 235.608 72.2351C236.129 72.2351 236.583 72.1075 236.971 71.8523C237.358 71.5971 237.658 71.2225 237.871 70.7287C238.086 70.2348 238.194 69.6283 238.194 68.9091ZM246.171 74V63.8182H252.912V65.593H248.324V68.0192H252.465V69.794H248.324V74H246.171ZM258.56 74V63.8182H265.302V65.593H260.713V68.0192H264.854V69.794H260.713V74H258.56Z" fill="white"/>
<path d="M28.5284 51V21.9091H40.0057C42.2027 21.9091 44.0777 22.3021 45.6307 23.0881C47.1932 23.8646 48.3816 24.9678 49.196 26.3977C50.0199 27.8182 50.4318 29.4896 50.4318 31.4119C50.4318 33.3437 50.0152 35.0057 49.1818 36.3977C48.3485 37.7803 47.1411 38.8409 45.5597 39.5795C43.9877 40.3182 42.0843 40.6875 39.8494 40.6875H32.1648V35.7443H38.8551C40.0294 35.7443 41.0047 35.5833 41.7812 35.2614C42.5578 34.9394 43.1354 34.4564 43.5142 33.8125C43.9025 33.1686 44.0966 32.3684 44.0966 31.4119C44.0966 30.446 43.9025 29.6316 43.5142 28.9688C43.1354 28.3059 42.553 27.804 41.767 27.4631C40.9905 27.1127 40.0104 26.9375 38.8267 26.9375H34.679V51H28.5284ZM44.2386 37.7614L51.4688 51H44.679L37.6051 37.7614H44.2386ZM66.7784 51V21.9091H86.3807V26.9801H72.929V33.9119H85.3722V38.983H72.929V45.929H86.4375V51H66.7784ZM119.052 30.2756C118.938 29.1297 118.451 28.2396 117.589 27.6051C116.727 26.9706 115.558 26.6534 114.08 26.6534C113.076 26.6534 112.229 26.7955 111.538 27.0795C110.846 27.3542 110.316 27.7377 109.947 28.2301C109.587 28.7225 109.407 29.2812 109.407 29.9062C109.388 30.4271 109.497 30.8816 109.734 31.2699C109.98 31.6581 110.316 31.9943 110.742 32.2784C111.168 32.553 111.661 32.7945 112.219 33.0028C112.778 33.2017 113.375 33.3722 114.009 33.5142L116.623 34.1392C117.892 34.4233 119.057 34.8021 120.117 35.2756C121.178 35.7491 122.096 36.3314 122.873 37.0227C123.649 37.714 124.251 38.5284 124.677 39.4659C125.112 40.4034 125.335 41.4782 125.344 42.6903C125.335 44.4706 124.88 46.0142 123.981 47.321C123.091 48.6184 121.803 49.6269 120.117 50.3466C118.441 51.0568 116.419 51.4119 114.052 51.4119C111.703 51.4119 109.658 51.0521 107.915 50.3324C106.183 49.6127 104.828 48.5473 103.853 47.1364C102.887 45.7159 102.38 43.9593 102.333 41.8665H108.285C108.351 42.8419 108.63 43.6562 109.123 44.3097C109.625 44.9536 110.292 45.4413 111.126 45.7727C111.969 46.0947 112.92 46.2557 113.981 46.2557C115.022 46.2557 115.927 46.1042 116.694 45.8011C117.47 45.4981 118.072 45.0767 118.498 44.5369C118.924 43.9972 119.137 43.3769 119.137 42.6761C119.137 42.0227 118.943 41.4735 118.555 41.0284C118.176 40.5833 117.617 40.2045 116.879 39.892C116.149 39.5795 115.254 39.2955 114.194 39.0398L111.026 38.2443C108.574 37.6477 106.637 36.715 105.217 35.446C103.796 34.1771 103.091 32.4678 103.1 30.3182C103.091 28.5568 103.559 27.018 104.506 25.7017C105.463 24.3854 106.774 23.358 108.441 22.6193C110.108 21.8807 112.002 21.5114 114.123 21.5114C116.282 21.5114 118.166 21.8807 119.776 22.6193C121.396 23.358 122.655 24.3854 123.555 25.7017C124.454 27.018 124.918 28.5426 124.947 30.2756H119.052ZM140.374 26.9801V21.9091H164.266V26.9801H155.359V51H149.28V26.9801H140.374ZM181.66 51H175.069L185.112 21.9091H193.038L203.066 51H196.475L189.188 28.5568H188.961L181.66 51ZM181.248 39.5653H196.816V44.3665H181.248V39.5653ZM236.536 21.9091H242.687V40.8011C242.687 42.9223 242.18 44.7784 241.167 46.3693C240.163 47.9602 238.757 49.2008 236.948 50.0909C235.139 50.9716 233.032 51.4119 230.627 51.4119C228.212 51.4119 226.101 50.9716 224.292 50.0909C222.483 49.2008 221.077 47.9602 220.073 46.3693C219.069 44.7784 218.567 42.9223 218.567 40.8011V21.9091H224.718V40.2756C224.718 41.3835 224.96 42.3684 225.442 43.2301C225.935 44.0919 226.626 44.7689 227.516 45.2614C228.406 45.7538 229.443 46 230.627 46C231.82 46 232.857 45.7538 233.738 45.2614C234.628 44.7689 235.315 44.0919 235.798 43.2301C236.29 42.3684 236.536 41.3835 236.536 40.2756V21.9091Z" fill="white"/>
<path d="M259.747 51V21.9091H271.224C273.421 21.9091 275.296 22.3021 276.849 23.0881C278.412 23.8646 279.6 24.9678 280.415 26.3977C281.239 27.8182 281.651 29.4896 281.651 31.4119C281.651 33.3437 281.234 35.0057 280.401 36.3977C279.567 37.7803 278.36 38.8409 276.778 39.5795C275.206 40.3182 273.303 40.6875 271.068 40.6875H263.384V35.7443H270.074C271.248 35.7443 272.223 35.5833 273 35.2614C273.777 34.9394 274.354 34.4564 274.733 33.8125C275.121 33.1686 275.315 32.3684 275.315 31.4119C275.315 30.446 275.121 29.6316 274.733 28.9688C274.354 28.3059 273.772 27.804 272.986 27.4631C272.209 27.1127 271.229 26.9375 270.045 26.9375H265.898V51H259.747ZM275.457 37.7614L282.688 51H275.898L268.824 37.7614H275.457ZM303.011 51H296.42L306.463 21.9091H314.389L324.418 51H317.827L310.54 28.5568H310.312L303.011 51ZM302.599 39.5653H318.168V44.3665H302.599V39.5653ZM364.251 21.9091V51H358.939L346.283 32.6903H346.07V51H339.919V21.9091H345.317L357.874 40.2045H358.129V21.9091H364.251ZM380.225 26.9801V21.9091H404.117V26.9801H395.211V51H389.131V26.9801H380.225Z" fill="#FF6B00"/>
</svg>
